<svg width="445" height="252" viewBox="0 0 445 252" fill="none" xmlns="http://www.w3.org/2000/svg">
<path d="M154.34 144.14C154.34 147.7 152.92 150.6 150.08 152.84C147.28 155.08 143.74 156.2 139.46 156.2C137.14 156.2 134.62 155.84 131.9 155.12C129.18 154.44 126.94 153.52 125.18 152.36L125.12 150.68C125.12 147.36 125.44 144.2 126.08 141.2H130.4L133.34 149.6C135.86 150.76 138.74 151.34 141.98 151.34C144.18 150.3 145.28 148.62 145.28 146.3C145.28 144.18 143.98 142.4 141.38 140.96L132.38 136.4C127.62 133.68 125.24 130.26 125.24 126.14C125.24 122.66 126.68 119.82 129.56 117.62C132.44 115.42 136.14 114.32 140.66 114.32C144.66 114.32 148.62 115.04 152.54 116.48C152.54 120.72 152.2 124.38 151.52 127.46H146.72L144.98 120.74C142.66 119.54 139.88 118.98 136.64 119.06C134.8 120.22 133.88 121.84 133.88 123.92C133.88 125.12 134.4 126.22 135.44 127.22C136.52 128.18 138.68 129.4 141.92 130.88C145.2 132.36 147.6 133.64 149.12 134.72C150.68 135.76 151.94 137.06 152.9 138.62C153.86 140.14 154.34 141.98 154.34 144.14ZM173.262 150.26C175.142 150.86 176.602 151.46 177.642 152.06L177.402 155H160.182L160.002 152.96C161.202 152.28 162.722 151.62 164.562 150.98V116.3L160.062 115.82L159.642 112.94C163.082 111.62 166.642 110.92 170.322 110.84L173.262 113.48V150.26ZM205.683 140.72L190.383 140.54C190.543 143.5 191.463 145.8 193.143 147.44C194.823 149.08 196.963 149.9 199.563 149.9C201.723 149.9 204.283 149.18 207.243 147.74L208.503 150.92L199.083 155.78L197.163 155.9C192.763 155.9 189.143 154.52 186.303 151.76C183.463 148.96 182.043 145.42 182.043 141.14C182.043 136.66 183.483 132.9 186.363 129.86C189.243 126.78 192.743 125.24 196.863 125.24C200.463 125.24 203.403 126.36 205.683 128.6C208.003 130.8 209.163 133.68 209.163 137.24L205.683 140.72ZM194.763 129.8C192.683 131 191.343 133.2 190.743 136.4L201.123 135.86C200.843 134.14 200.103 132.7 198.903 131.54C197.743 130.38 196.363 129.8 194.763 129.8ZM237.746 140.72L222.446 140.54C222.606 143.5 223.526 145.8 225.206 147.44C226.886 149.08 229.026 149.9 231.626 149.9C233.786 149.9 236.346 149.18 239.306 147.74L240.566 150.92L231.146 155.78L229.226 155.9C224.826 155.9 221.206 154.52 218.366 151.76C215.526 148.96 214.106 145.42 214.106 141.14C214.106 136.66 215.546 132.9 218.426 129.86C221.306 126.78 224.806 125.24 228.926 125.24C232.526 125.24 235.466 126.36 237.746 128.6C240.066 130.8 241.226 133.68 241.226 137.24L237.746 140.72ZM226.826 129.8C224.746 131 223.406 133.2 222.806 136.4L233.186 135.86C232.906 134.14 232.166 132.7 230.966 131.54C229.806 130.38 228.426 129.8 226.826 129.8ZM263.162 155.6C262.042 155.6 260.602 155.46 258.842 155.18V162.2C261.282 162.96 263.102 163.64 264.302 164.24L264.062 167.18H246.362L246.182 165.08L250.142 163.58V130.88L245.702 130.34L245.282 127.46C248.602 126.18 252.162 125.48 255.962 125.36V125.42L258.842 128V130.28L265.262 125.72L267.422 125.54C270.662 125.54 273.322 126.88 275.402 129.56C277.482 132.2 278.522 135.52 278.522 139.52C278.522 144.2 277.082 148.06 274.202 151.1C271.362 154.1 267.682 155.6 263.162 155.6ZM263.102 132.02C261.942 132.02 260.522 132.46 258.842 133.34V150.08C260.322 150.64 262.002 150.92 263.882 150.92L265.382 150.86C266.582 149.9 267.522 148.54 268.202 146.78C268.922 144.98 269.282 143.1 269.282 141.14C269.282 138.66 268.722 136.52 267.602 134.72C266.482 132.92 264.982 132.02 263.102 132.02Z" fill="white"/>
<path d="M342 117.44L337.44 119.72L327.36 155.06C324.96 155.5 322.12 155.76 318.84 155.84L312.42 134.72L311.1 141.68L306.96 155.06C304.56 155.5 301.74 155.76 298.5 155.84L287.22 119.18L282.96 118.58L283.02 115.52H301.26L301.62 117.44C300.46 118.16 298.82 118.96 296.7 119.84L302.4 140.9L302.88 148.88H303.18L309.78 126.02L307.32 117.86L316.02 115.88L322.56 140.36L323.22 148.88H323.34L331.38 119.42L325.56 118.58L325.62 115.52H341.64L342 117.44ZM350.358 121.52C347.838 120.4 345.738 118.78 344.058 116.66C345.378 114.02 347.098 111.9 349.218 110.3C351.618 111.58 353.638 113.34 355.278 115.58C354.158 117.98 352.518 119.96 350.358 121.52ZM354.258 150.26C356.138 150.86 357.598 151.46 358.638 152.06L358.398 155H341.178L340.998 152.96C342.198 152.28 343.718 151.62 345.558 150.98V130.88L341.058 130.34L340.638 127.46C344.078 126.14 347.638 125.44 351.318 125.36L354.258 128V150.26ZM372.629 132.38C372.629 133.22 372.929 133.96 373.529 134.6C374.169 135.24 376.069 136.34 379.229 137.9C382.389 139.42 384.529 140.88 385.649 142.28C386.769 143.68 387.329 145.28 387.329 147.08C387.329 149.76 386.249 151.96 384.089 153.68C381.969 155.36 379.169 156.2 375.689 156.2C371.769 156.2 367.809 155.14 363.809 153.02L366.809 146C370.489 148.72 374.209 150.58 377.969 151.58C378.809 150.86 379.229 149.96 379.229 148.88C379.229 147.96 378.869 147.16 378.149 146.48C377.429 145.8 375.549 144.72 372.509 143.24C369.469 141.76 367.409 140.36 366.329 139.04C365.289 137.68 364.769 136.12 364.769 134.36C364.769 131.64 365.949 129.44 368.309 127.76C370.669 126.08 373.689 125.24 377.369 125.24C380.809 125.24 383.729 125.88 386.129 127.16L386.189 128.84C386.189 131.16 385.849 133.32 385.169 135.32H380.549L379.109 130.04C377.589 129.64 376.189 129.48 374.909 129.56C373.389 130.08 372.629 131.02 372.629 132.38ZM416.867 140.72L401.567 140.54C401.727 143.5 402.647 145.8 404.327 147.44C406.007 149.08 408.147 149.9 410.747 149.9C412.907 149.9 415.467 149.18 418.427 147.74L419.687 150.92L410.267 155.78L408.347 155.9C403.947 155.9 400.327 154.52 397.487 151.76C394.647 148.96 393.227 145.42 393.227 141.14C393.227 136.66 394.667 132.9 397.547 129.86C400.427 126.78 403.927 125.24 408.047 125.24C411.647 125.24 414.587 126.36 416.867 128.6C419.187 130.8 420.347 133.68 420.347 137.24L416.867 140.72ZM405.947 129.8C403.867 131 402.527 133.2 401.927 136.4L412.307 135.86C412.027 134.14 411.287 132.7 410.087 131.54C408.927 130.38 407.547 129.8 405.947 129.8Z" fill="#E7A17A"/>
<mask id="path-2-inside-1_2_1994" fill="white">
<path fill-rule="evenodd" clip-rule="evenodd" d="M205.115 204.912C160.333 207.761 118.52 197.132 97.4921 155.231C72.2054 104.843 106.512 50.9734 140.971 19.1987C142.162 18.6011 143.359 18.0301 144.562 17.4853C132.434 14.78 119.991 13.7589 107.783 14.6543C46.8664 19.1226 7.35526 74.4888 11.9118 136.609C16.4683 198.73 69.545 245.466 130.462 240.998C158.657 238.93 185.193 225.212 205.115 204.912Z"/>
</mask>
<path fill-rule="evenodd" clip-rule="evenodd" d="M205.115 204.912C160.333 207.761 118.52 197.132 97.4921 155.231C72.2054 104.843 106.512 50.9734 140.971 19.1987C142.162 18.6011 143.359 18.0301 144.562 17.4853C132.434 14.78 119.991 13.7589 107.783 14.6543C46.8664 19.1226 7.35526 74.4888 11.9118 136.609C16.4683 198.73 69.545 245.466 130.462 240.998C158.657 238.93 185.193 225.212 205.115 204.912Z" fill="url(#paint0_linear_2_1994)"/>
<path d="M205.115 204.912L209.053 208.777L219.149 198.489L204.764 199.405L205.115 204.912ZM97.4921 155.231L102.424 152.755L102.424 152.755L97.4921 155.231ZM140.971 19.1987L138.496 14.2666L137.801 14.6151L137.23 15.1418L140.971 19.1987ZM144.562 17.4853L146.838 22.5126L161.893 15.6971L145.764 12.0994L144.562 17.4853ZM204.764 199.405C160.86 202.198 121.973 191.71 102.424 152.755L92.56 157.706C115.067 202.554 159.806 213.325 205.465 210.419L204.764 199.405ZM102.424 152.755C90.6801 129.353 92.6399 105.015 101.933 82.3264C111.265 59.5445 127.884 38.7725 144.712 23.2556L137.23 15.1418C119.599 31.3996 101.835 53.4495 91.7202 78.143C81.5674 102.93 79.0175 130.72 92.56 157.706L102.424 152.755ZM143.446 24.1309C144.571 23.5663 145.702 23.0269 146.838 22.5126L142.286 12.4581C141.016 13.0332 139.752 13.6359 138.496 14.2666L143.446 24.1309ZM108.187 20.1579C119.821 19.3046 131.722 20.2752 143.361 22.8713L145.764 12.0994C133.145 9.28474 120.162 8.21319 107.38 9.15077L108.187 20.1579ZM17.4153 136.206C13.0347 76.4826 50.9142 24.3588 108.187 20.1579L107.38 9.15077C42.8186 13.8863 1.67583 72.495 6.40819 137.013L17.4153 136.206ZM130.058 235.495C72.2819 239.732 21.7564 195.389 17.4153 136.206L6.40819 137.013C11.1802 202.071 66.8081 251.2 130.866 246.502L130.058 235.495ZM201.176 201.047C182.062 220.524 156.737 233.538 130.058 235.495L130.866 246.502C160.576 244.322 188.324 229.9 209.053 208.777L201.176 201.047Z" fill="#4E4D8F" fill-opacity="0.63" mask="url(#path-2-inside-1_2_1994)"/>
<circle cx="139.629" cy="17.6366" r="15.5204" transform="rotate(0.892318 139.629 17.6366)" fill="#565596"/>
<path d="M65.5978 167.704C77.9703 169.562 86.0578 167.02 95.8853 160.907" stroke="#6C6BA1" stroke-width="5.51836" stroke-linecap="round"/>
<path d="M46.759 111.418C55.3374 114.128 60.6773 112.203 66.9507 106.887" stroke="#6C6BA1" stroke-width="5.51836" stroke-linecap="round"/>
<path d="M41.7617 55.7804C61.7543 71.1113 73.8232 72.6623 96.0447 69.7335" stroke="#6C6BA1" stroke-opacity="0.8" stroke-width="5.51836" stroke-linecap="round"/>
<line x1="49.1457" y1="114.399" x2="48.7069" y2="118.514" stroke="#6C6BA1" stroke-width="4.82856" stroke-linecap="round"/>
<line x1="56.919" y1="114.773" x2="57.2291" y2="118.9" stroke="#6C6BA1" stroke-width="4.82856" stroke-linecap="round"/>
<line x1="64.0867" y1="111.562" x2="65.8066" y2="115.327" stroke="#6C6BA1" stroke-width="4.82856" stroke-linecap="round"/>
<defs>
<linearGradient id="paint0_linear_2_1994" x1="76.6139" y1="-2.6265" x2="93.2486" y2="224.161" gradientUnits="userSpaceOnUse">
<stop offset="0.109375" stop-color="#4E4D8F"/>
<stop offset="0.359375" stop-color="#C9D5FC"/>
<stop offset="0.572917" stop-color="#EAE7FF"/>
<stop offset="0.614583" stop-color="#EAE7FF"/>
<stop offset="0.802083" stop-color="#F6D6FB"/>
<stop offset="0.9999" stop-color="#F2C4AB"/>
</linearGradient>
</defs>
</svg>
