<svg width="381" height="216" viewBox="0 0 381 216" fill="none" xmlns="http://www.w3.org/2000/svg">
<g clip-path="url(#clip0_11_2028)">
<path d="M132.291 123.406C132.291 126.457 131.074 128.943 128.64 130.863C126.24 132.783 123.206 133.743 119.537 133.743C117.549 133.743 115.389 133.434 113.057 132.817C110.726 132.234 108.806 131.446 107.297 130.451L107.246 129.011C107.246 126.166 107.52 123.457 108.069 120.886H111.771L114.291 128.086C116.451 129.08 118.92 129.577 121.697 129.577C123.583 128.686 124.526 127.246 124.526 125.257C124.526 123.44 123.411 121.914 121.183 120.68L113.469 116.771C109.389 114.44 107.349 111.509 107.349 107.977C107.349 104.994 108.583 102.56 111.051 100.674C113.52 98.7886 116.691 97.8457 120.566 97.8457C123.994 97.8457 127.389 98.4629 130.749 99.6971C130.749 103.331 130.457 106.469 129.874 109.109H125.76L124.269 103.349C122.28 102.32 119.897 101.84 117.12 101.909C115.543 102.903 114.754 104.291 114.754 106.074C114.754 107.103 115.2 108.046 116.091 108.903C117.017 109.726 118.869 110.771 121.646 112.04C124.457 113.309 126.514 114.406 127.817 115.331C129.154 116.223 130.234 117.337 131.057 118.674C131.88 119.977 132.291 121.554 132.291 123.406ZM148.51 128.651C150.121 129.166 151.373 129.68 152.264 130.194L152.058 132.714H137.298L137.144 130.966C138.173 130.383 139.476 129.817 141.053 129.269V99.5429L137.196 99.1314L136.836 96.6629C139.784 95.5314 142.836 94.9314 145.99 94.8629L148.51 97.1257V128.651ZM176.3 120.474L163.186 120.32C163.323 122.857 164.111 124.829 165.551 126.234C166.991 127.64 168.826 128.343 171.054 128.343C172.906 128.343 175.1 127.726 177.637 126.491L178.717 129.217L170.643 133.383L168.997 133.486C165.226 133.486 162.123 132.303 159.688 129.937C157.254 127.537 156.037 124.503 156.037 120.834C156.037 116.994 157.271 113.771 159.74 111.166C162.208 108.526 165.208 107.206 168.74 107.206C171.826 107.206 174.346 108.166 176.3 110.086C178.288 111.971 179.283 114.44 179.283 117.491L176.3 120.474ZM166.94 111.114C165.157 112.143 164.008 114.029 163.494 116.771L172.391 116.309C172.151 114.834 171.517 113.6 170.488 112.606C169.494 111.611 168.311 111.114 166.94 111.114ZM203.782 120.474L190.668 120.32C190.805 122.857 191.593 124.829 193.033 126.234C194.473 127.64 196.308 128.343 198.536 128.343C200.388 128.343 202.582 127.726 205.119 126.491L206.199 129.217L198.125 133.383L196.479 133.486C192.708 133.486 189.605 132.303 187.171 129.937C184.736 127.537 183.519 124.503 183.519 120.834C183.519 116.994 184.753 113.771 187.222 111.166C189.691 108.526 192.691 107.206 196.222 107.206C199.308 107.206 201.828 108.166 203.782 110.086C205.771 111.971 206.765 114.44 206.765 117.491L203.782 120.474ZM194.422 111.114C192.639 112.143 191.491 114.029 190.976 116.771L199.873 116.309C199.633 114.834 198.999 113.6 197.971 112.606C196.976 111.611 195.793 111.114 194.422 111.114ZM225.568 133.229C224.608 133.229 223.373 133.109 221.865 132.869V138.886C223.956 139.537 225.516 140.12 226.545 140.634L226.339 143.154H211.168L211.013 141.354L214.408 140.069V112.04L210.602 111.577L210.242 109.109C213.088 108.011 216.139 107.411 219.396 107.309V107.36L221.865 109.571V111.526L227.368 107.617L229.219 107.463C231.996 107.463 234.276 108.611 236.059 110.909C237.842 113.171 238.733 116.017 238.733 119.446C238.733 123.457 237.499 126.766 235.03 129.371C232.596 131.943 229.442 133.229 225.568 133.229ZM225.516 113.017C224.522 113.017 223.305 113.394 221.865 114.149V128.497C223.133 128.977 224.573 129.217 226.185 129.217L227.47 129.166C228.499 128.343 229.305 127.177 229.888 125.669C230.505 124.126 230.813 122.514 230.813 120.834C230.813 118.709 230.333 116.874 229.373 115.331C228.413 113.789 227.128 113.017 225.516 113.017Z" fill="white"/>
<path d="M293.143 100.52L289.234 102.474L280.594 132.766C278.537 133.143 276.103 133.366 273.291 133.434L267.788 115.331L266.657 121.297L263.108 132.766C261.051 133.143 258.634 133.366 255.857 133.434L246.188 102.011L242.537 101.497L242.588 98.8743H258.223L258.531 100.52C257.537 101.137 256.131 101.823 254.314 102.577L259.2 120.629L259.611 127.469H259.868L265.526 107.874L263.417 100.88L270.874 99.1829L276.48 120.166L277.046 127.469H277.148L284.04 102.217L279.051 101.497L279.103 98.8743H292.834L293.143 100.52ZM300.307 104.017C298.147 103.057 296.347 101.669 294.907 99.8514C296.038 97.5886 297.512 95.7714 299.329 94.4C301.387 95.4971 303.118 97.0057 304.524 98.9257C303.564 100.983 302.158 102.68 300.307 104.017ZM303.649 128.651C305.261 129.166 306.512 129.68 307.404 130.194L307.198 132.714H292.438L292.284 130.966C293.312 130.383 294.615 129.817 296.192 129.269V112.04L292.335 111.577L291.975 109.109C294.924 107.977 297.975 107.377 301.129 107.309L303.649 109.571V128.651ZM319.397 113.326C319.397 114.046 319.654 114.68 320.168 115.229C320.717 115.777 322.345 116.72 325.054 118.057C327.762 119.36 329.597 120.611 330.557 121.811C331.517 123.011 331.997 124.383 331.997 125.926C331.997 128.223 331.071 130.109 329.219 131.583C327.402 133.023 325.002 133.743 322.019 133.743C318.659 133.743 315.265 132.834 311.837 131.017L314.408 125C317.562 127.331 320.751 128.926 323.974 129.783C324.694 129.166 325.054 128.394 325.054 127.469C325.054 126.68 324.745 125.994 324.128 125.411C323.511 124.829 321.899 123.903 319.294 122.634C316.688 121.366 314.922 120.166 313.997 119.034C313.105 117.869 312.659 116.531 312.659 115.023C312.659 112.691 313.671 110.806 315.694 109.366C317.717 107.926 320.305 107.206 323.459 107.206C326.408 107.206 328.911 107.754 330.968 108.851L331.019 110.291C331.019 112.28 330.728 114.131 330.145 115.846H326.185L324.951 111.32C323.648 110.977 322.448 110.84 321.351 110.909C320.048 111.354 319.397 112.16 319.397 113.326ZM357.314 120.474L344.2 120.32C344.337 122.857 345.126 124.829 346.566 126.234C348.006 127.64 349.84 128.343 352.069 128.343C353.92 128.343 356.114 127.726 358.651 126.491L359.731 129.217L351.657 133.383L350.011 133.486C346.24 133.486 343.137 132.303 340.703 129.937C338.269 127.537 337.051 124.503 337.051 120.834C337.051 116.994 338.286 113.771 340.754 111.166C343.223 108.526 346.223 107.206 349.754 107.206C352.84 107.206 355.36 108.166 357.314 110.086C359.303 111.971 360.297 114.44 360.297 117.491L357.314 120.474ZM347.954 111.114C346.171 112.143 345.023 114.029 344.509 116.771L353.406 116.309C353.166 114.834 352.531 113.6 351.503 112.606C350.509 111.611 349.326 111.114 347.954 111.114Z" fill="#E7A17A"/>
<mask id="path-2-inside-1_11_2028" fill="white">
<path fill-rule="evenodd" clip-rule="evenodd" d="M175.813 175.639C137.428 178.081 101.589 168.97 83.5647 133.055C61.8904 89.8651 91.2957 43.6915 120.832 16.456C121.853 15.9438 122.879 15.4543 123.91 14.9874C113.514 12.6685 102.85 11.7933 92.3857 12.5609C40.1712 16.3908 6.3045 63.8476 10.2101 117.094C14.1157 170.34 59.61 210.4 111.825 206.57C135.991 204.797 158.737 193.039 175.813 175.639Z"/>
</mask>
<path fill-rule="evenodd" clip-rule="evenodd" d="M175.813 175.639C137.428 178.081 101.589 168.97 83.5647 133.055C61.8904 89.8651 91.2957 43.6915 120.832 16.456C121.853 15.9438 122.879 15.4543 123.91 14.9874C113.514 12.6685 102.85 11.7933 92.3857 12.5609C40.1712 16.3908 6.3045 63.8476 10.2101 117.094C14.1157 170.34 59.61 210.4 111.825 206.57C135.991 204.797 158.737 193.039 175.813 175.639Z" fill="url(#paint0_linear_11_2028)"/>
<path d="M175.813 175.639L179.189 178.952L187.842 170.134L175.512 170.918L175.813 175.639ZM83.5647 133.055L79.3372 135.176L79.3372 135.176L83.5647 133.055ZM120.832 16.456L118.711 12.2285L118.115 12.5272L117.626 12.9787L120.832 16.456ZM123.91 14.9874L125.861 19.2965L138.765 13.4547L124.94 10.3709L123.91 14.9874ZM175.512 170.918C137.88 173.313 104.548 164.323 87.7923 130.933L79.3372 135.176C98.6287 173.618 136.976 182.85 176.113 180.359L175.512 170.918ZM87.7923 130.933C77.7258 110.874 79.4057 90.0128 87.3714 70.5655C95.3699 51.0382 109.615 33.2336 124.039 19.9334L117.626 12.9787C102.513 26.9139 87.287 45.8139 78.6173 66.9797C69.9149 88.2254 67.7293 112.046 79.3372 135.176L87.7923 130.933ZM122.954 20.6836C123.918 20.1997 124.887 19.7374 125.861 19.2965L121.96 10.6784C120.871 11.1713 119.788 11.688 118.711 12.2285L122.954 20.6836ZM92.7317 17.2782C102.704 16.5468 112.904 17.3787 122.881 19.604L124.94 10.3709C114.125 7.95835 102.996 7.03988 92.0397 7.84352L92.7317 17.2782ZM14.9274 116.748C11.1726 65.5565 43.6408 20.879 92.7317 17.2782L92.0397 7.84352C36.7016 11.9025 1.43643 62.1386 5.49273 117.44L14.9274 116.748ZM111.478 201.853C61.9559 205.485 18.6483 167.476 14.9274 116.748L5.49273 117.44C9.583 173.204 57.2641 215.315 112.171 211.287L111.478 201.853ZM172.437 172.326C156.053 189.021 134.346 200.175 111.478 201.853L112.171 211.287C137.637 209.419 161.421 197.057 179.189 178.952L172.437 172.326Z" fill="#4E4D8F" fill-opacity="0.63" mask="url(#path-2-inside-1_11_2028)"/>
<circle cx="119.682" cy="15.1171" r="13.3032" transform="rotate(0.892318 119.682 15.1171)" fill="#565596"/>
<path d="M56.2267 143.746C66.8317 145.338 73.7638 143.16 82.1875 137.92" stroke="#6C6BA1" stroke-width="4.73002" stroke-linecap="round"/>
<path d="M40.0792 95.5013C47.4321 97.8237 52.0091 96.1738 57.3863 91.6174" stroke="#6C6BA1" stroke-width="4.73002" stroke-linecap="round"/>
<path d="M35.7957 47.8117C52.9322 60.9526 63.2771 62.282 82.3241 59.7716" stroke="#6C6BA1" stroke-opacity="0.8" stroke-width="4.73002" stroke-linecap="round"/>
<line x1="42.1249" y1="98.0561" x2="41.7488" y2="101.584" stroke="#6C6BA1" stroke-width="4.13877" stroke-linecap="round"/>
<line x1="48.7877" y1="98.3765" x2="49.0535" y2="101.914" stroke="#6C6BA1" stroke-width="4.13877" stroke-linecap="round"/>
<line x1="54.9315" y1="95.6247" x2="56.4057" y2="98.8513" stroke="#6C6BA1" stroke-width="4.13877" stroke-linecap="round"/>
</g>
<defs>
<linearGradient id="paint0_linear_11_2028" x1="65.6691" y1="-2.25129" x2="79.9274" y2="192.138" gradientUnits="userSpaceOnUse">
<stop offset="0.109375" stop-color="#4E4D8F"/>
<stop offset="0.359375" stop-color="#C9D5FC"/>
<stop offset="0.572917" stop-color="#EAE7FF"/>
<stop offset="0.614583" stop-color="#EAE7FF"/>
<stop offset="0.802083" stop-color="#F6D6FB"/>
<stop offset="0.9999" stop-color="#F2C4AB"/>
</linearGradient>
<clipPath id="clip0_11_2028">
<rect width="381" height="216" fill="white"/>
</clipPath>
</defs>
</svg>
